<svg width="30" height="23" viewBox="0 0 30 23" fill="none" xmlns="http://www.w3.org/2000/svg">
<g id="Pre request / icon / Disabled" clip-path="url(#clip0_571_8871)">
<g id="Clip path group">
<mask id="mask0_571_8871" style="mask-type:luminance" maskUnits="userSpaceOnUse" x="0" y="0" width="30" height="23">
<g id="clip-Pre_request">
<path id="Vector" d="M30 0H0V23H30V0Z" fill="white"/>
</g>
</mask>
<g mask="url(#mask0_571_8871)">
<g id="Pre request">
<g id="Group 30213">
<g id="5084656_clipboard_copy_document_duplicate_icon">
<path id="Path 16370" d="M16.46 1.89578V2.79935H9.69166C8.93734 2.79935 8.21392 3.09473 7.68053 3.62049C7.14715 4.14626 6.8475 4.85935 6.8475 5.60289V16.9016H5.34C5.18591 16.9016 5.03334 16.8717 4.89098 16.8136C4.74863 16.7555 4.61928 16.6703 4.51033 16.5629C4.40137 16.4555 4.31494 16.328 4.25598 16.1877C4.19701 16.0473 4.16666 15.897 4.16666 15.7451V1.89578C4.16666 1.7439 4.19701 1.5935 4.25598 1.45318C4.31494 1.31286 4.40137 1.18536 4.51033 1.07796C4.61928 0.970566 4.74863 0.885374 4.89098 0.827251C5.03334 0.769128 5.18591 0.739212 5.34 0.739212H15.2942C15.6041 0.741165 15.9006 0.863879 16.119 1.08057C16.3374 1.29725 16.46 1.59032 16.46 1.89578Z" stroke="#717171"/>
<path id="Path 16371" d="M19.1408 4.20154H9.69083C9.31378 4.20154 8.95218 4.34918 8.68556 4.61199C8.41895 4.87479 8.26917 5.23123 8.26917 5.6029V18.9618C8.26917 19.3335 8.41895 19.6899 8.68556 19.9527C8.95218 20.2155 9.31378 20.3631 9.69083 20.3631H19.1408C19.5179 20.3631 19.8795 20.2155 20.1461 19.9527C20.4127 19.6899 20.5625 19.3335 20.5625 18.9618V5.6029C20.5625 5.23123 20.4127 4.87479 20.1461 4.61199C19.8795 4.34918 19.5179 4.20154 19.1408 4.20154ZM18.0533 15.8708H10.7575C10.569 15.8708 10.3882 15.7969 10.2549 15.6655C10.1216 15.5341 10.0467 15.3559 10.0467 15.1701C10.0467 14.9842 10.1216 14.806 10.2549 14.6746C10.3882 14.5432 10.569 14.4694 10.7575 14.4694H18.0525C18.241 14.4694 18.4218 14.5432 18.5551 14.6746C18.6884 14.806 18.7633 14.9842 18.7633 15.1701C18.7633 15.3559 18.6884 15.5341 18.5551 15.6655C18.4218 15.7969 18.241 15.8708 18.0525 15.8708H18.0533ZM18.0533 12.9834H10.7575C10.569 12.9834 10.3882 12.9096 10.2549 12.7782C10.1216 12.6468 10.0467 12.4686 10.0467 12.2828C10.0467 12.0969 10.1216 11.9187 10.2549 11.7873C10.3882 11.6559 10.569 11.5821 10.7575 11.5821H18.0525C18.241 11.5821 18.4218 11.6559 18.5551 11.7873C18.6884 11.9187 18.7633 12.0969 18.7633 12.2828C18.7633 12.4686 18.6884 12.6468 18.5551 12.7782C18.4218 12.9096 18.241 12.9834 18.0525 12.9834H18.0533ZM18.0533 10.0961H10.7575C10.569 10.0961 10.3882 10.0223 10.2549 9.89089C10.1216 9.75948 10.0467 9.58126 10.0467 9.39543C10.0467 9.2096 10.1216 9.03138 10.2549 8.89998C10.3882 8.76857 10.569 8.69475 10.7575 8.69475H18.0525C18.1458 8.69475 18.2383 8.71288 18.3245 8.74809C18.4108 8.7833 18.4891 8.83491 18.5551 8.89998C18.6211 8.96504 18.6735 9.04228 18.7092 9.12729C18.7449 9.2123 18.7633 9.30342 18.7633 9.39543C18.7633 9.48744 18.7449 9.57856 18.7092 9.66357C18.6735 9.74858 18.6211 9.82582 18.5551 9.89089C18.4891 9.95595 18.4108 10.0076 18.3245 10.0428C18.2383 10.078 18.1458 10.0961 18.0525 10.0961H18.0533Z" stroke="#717171"/>
</g>
<path id="Path 16375" d="M21.1267 12.7229C22.2448 12.7229 23.3378 13.0498 24.2675 13.6621C25.1972 14.2744 25.9218 15.1447 26.3497 16.163C26.7775 17.1812 26.8895 18.3017 26.6714 19.3827C26.4532 20.4636 25.9148 21.4566 25.1242 22.2359C24.3335 23.0152 23.3262 23.546 22.2296 23.761C21.1329 23.976 19.9962 23.8657 18.9632 23.4439C17.9302 23.0221 17.0473 22.3079 16.4261 21.3915C15.8049 20.4751 15.4733 19.3977 15.4733 18.2955C15.4733 16.8176 16.0689 15.4002 17.1292 14.3551C18.1894 13.31 19.6273 12.7229 21.1267 12.7229Z" fill="white"/>
<g id="9044977_previous_filled_icon">
<path id="Path 16374" d="M18.3471 14.3127C19.0954 13.8198 19.9751 13.5568 20.875 13.5568C21.4725 13.5568 22.0642 13.6728 22.6162 13.8982C23.1682 14.1236 23.6698 14.4539 24.0923 14.8704C24.5148 15.2869 24.85 15.7813 25.0786 16.3255C25.3073 16.8696 25.425 17.4528 25.425 18.0418C25.425 18.9288 25.1581 19.796 24.6582 20.5335C24.1582 21.2711 23.4476 21.8459 22.6162 22.1854C21.7848 22.5249 20.8699 22.6137 19.9873 22.4406C19.1047 22.2676 18.294 21.8404 17.6576 21.2132C17.0213 20.5859 16.588 19.7868 16.4124 18.9168C16.2368 18.0468 16.3269 17.145 16.6713 16.3255C17.0157 15.5059 17.5989 14.8055 18.3471 14.3127Z" stroke="#717171" stroke-width="0.7"/>
</g>
</g>
</g>
</g>
</g>
<path id="Vector_2" d="M18.4286 17.5714H20.5714V15.4286C20.5714 15.192 20.7634 15 21 15C21.2366 15 21.4286 15.192 21.4286 15.4286V17.5714H23.5714C23.808 17.5714 24 17.7634 24 18C24 18.2366 23.808 18.4286 23.5714 18.4286H21.4286V20.5714C21.4286 20.808 21.2366 21 21 21C20.7634 21 20.5714 20.808 20.5714 20.5714V18.4286H18.4286C18.192 18.4286 18 18.2366 18 18C18 17.7634 18.192 17.5714 18.4286 17.5714Z" fill="#717171"/>
</g>
<defs>
<clipPath id="clip0_571_8871">
<rect width="30" height="23" fill="white"/>
</clipPath>
</defs>
</svg>
