<svg width="18" height="18" viewBox="0 0 18 18" fill="none" xmlns="http://www.w3.org/2000/svg">
<g id="Change password 1" clip-path="url(#clip0_18_1145)">
<g id="Clip path group">
<mask id="mask0_18_1145" style="mask-type:luminance" maskUnits="userSpaceOnUse" x="0" y="0" width="18" height="18">
<g id="clip-Change_password">
<path id="Vector" d="M18 0H0V18H18V0Z" fill="white"/>
</g>
</mask>
<g mask="url(#mask0_18_1145)">
<g id="Change password">
<g id="Change_password">
<path id="Path 16935" d="M16.9632 4.85399C16.9169 4.76503 16.8372 4.69813 16.7415 4.66797C16.6459 4.63782 16.5422 4.64688 16.4532 4.69318C16.3643 4.73949 16.2973 4.81925 16.2672 4.91489C16.237 5.01053 16.2461 5.11423 16.2924 5.20319C17.1941 6.94448 17.4435 8.95073 16.9958 10.8598C16.5481 12.7689 15.4326 14.455 13.8508 15.6139C12.269 16.7727 10.325 17.3279 8.36977 17.1792C6.41453 17.0306 4.57685 16.1879 3.18842 14.8032C3.13543 14.7475 3.06671 14.7092 2.99142 14.6936C2.91614 14.6779 2.83788 14.6856 2.76707 14.7156C2.69627 14.7456 2.6363 14.7965 2.59516 14.8614C2.55401 14.9264 2.53366 15.0024 2.53682 15.0792V17.2536C2.53682 17.3538 2.57664 17.45 2.64753 17.5209C2.71842 17.5918 2.81457 17.6316 2.91482 17.6316C3.01507 17.6316 3.11121 17.5918 3.1821 17.5209C3.25299 17.45 3.29281 17.3538 3.29281 17.2536V15.9336C4.89101 17.2465 6.89354 17.9673 8.96185 17.974C11.0302 17.9808 13.0374 17.2732 14.6441 15.9708C16.2509 14.6684 17.3587 12.8511 17.7801 10.8262C18.2016 8.80127 17.9109 6.69293 16.9572 4.8576L16.9632 4.85399Z" fill="#00685E"/>
<path id="Path 16936" d="M3.18841 3.1872C4.73098 1.6482 6.82101 0.783904 9.00001 0.783904C11.179 0.783904 13.269 1.6482 14.8116 3.1872C14.8645 3.24019 14.9319 3.27629 15.0053 3.29093C15.0787 3.30556 15.1548 3.29808 15.224 3.26942C15.2931 3.24075 15.3522 3.19221 15.3937 3.12993C15.4352 3.06765 15.4573 2.99445 15.4572 2.9196V0.745195C15.4572 0.644943 15.4174 0.548798 15.3465 0.477909C15.2756 0.407021 15.1795 0.367197 15.0792 0.367197C14.979 0.367197 14.8828 0.407021 14.8119 0.477909C14.741 0.548798 14.7012 0.644943 14.7012 0.745195V2.0652C13.103 0.752287 11.1005 0.0315166 9.03218 0.024737C6.96387 0.0179574 4.95666 0.725586 3.3499 2.02799C1.74313 3.33039 0.635375 5.14767 0.213911 7.17259C-0.207554 9.19752 0.0831275 11.3059 1.03681 13.1412C1.05974 13.1852 1.09112 13.2243 1.12916 13.2563C1.1672 13.2882 1.21115 13.3123 1.25851 13.3272C1.30587 13.3422 1.3557 13.3476 1.40517 13.3433C1.45464 13.339 1.50277 13.3249 1.54681 13.302C1.59086 13.2791 1.62996 13.2477 1.66187 13.2096C1.69379 13.1716 1.71791 13.1277 1.73284 13.0803C1.74777 13.0329 1.75323 12.9831 1.7489 12.9336C1.74457 12.8842 1.73054 12.836 1.70761 12.792C0.897289 11.2434 0.603884 9.47603 0.870335 7.74864C1.13679 6.02124 1.9491 4.42447 3.18841 3.192V3.1872Z" fill="#00685E"/>
<path id="Path 16937" d="M4.04642 8.94359V13.1256C4.04705 13.3991 4.15598 13.6612 4.34938 13.8546C4.54278 14.048 4.80491 14.157 5.07842 14.1576H12.918C13.1915 14.157 13.4536 14.048 13.647 13.8546C13.8404 13.6612 13.9494 13.3991 13.95 13.1256V8.94359C13.9494 8.67008 13.8404 8.40796 13.647 8.21456C13.4536 8.02116 13.1915 7.91222 12.918 7.91159H5.07842C4.80491 7.91222 4.54278 8.02116 4.34938 8.21456C4.15598 8.40796 4.04705 8.67008 4.04642 8.94359ZM11.7492 10.2264C11.9089 10.2264 12.0651 10.2738 12.1979 10.3625C12.3307 10.4513 12.4342 10.5774 12.4953 10.725C12.5565 10.8725 12.5725 11.0349 12.5413 11.1916C12.5101 11.3482 12.4332 11.4921 12.3203 11.6051C12.2073 11.718 12.0634 11.7949 11.9068 11.8261C11.7501 11.8572 11.5877 11.8413 11.4402 11.7801C11.2926 11.719 11.1665 11.6155 11.0777 11.4827C10.989 11.3499 10.9416 11.1937 10.9416 11.034C10.9416 10.9278 10.9625 10.8227 11.0032 10.7247C11.0439 10.6266 11.1035 10.5375 11.1786 10.4625C11.2537 10.3875 11.3429 10.328 11.441 10.2875C11.5391 10.247 11.6443 10.2262 11.7504 10.2264H11.7492ZM8.99881 10.2264C9.15853 10.2264 9.31468 10.2738 9.44749 10.3625C9.5803 10.4513 9.68382 10.5774 9.74494 10.725C9.80607 10.8725 9.82206 11.0349 9.7909 11.1916C9.75974 11.3482 9.68282 11.4921 9.56988 11.6051C9.45693 11.718 9.31303 11.7949 9.15637 11.8261C8.99971 11.8572 8.83733 11.8413 8.68976 11.7801C8.54219 11.719 8.41606 11.6155 8.32732 11.4827C8.23858 11.3499 8.19122 11.1937 8.19122 11.034C8.19122 10.8198 8.2763 10.6144 8.42776 10.4629C8.57921 10.3115 8.78462 10.2264 8.99881 10.2264ZM6.24842 10.2264C6.40814 10.2264 6.56429 10.2738 6.6971 10.3625C6.82991 10.4513 6.93341 10.5774 6.99453 10.725C7.05566 10.8725 7.07166 11.0349 7.04049 11.1916C7.00933 11.3482 6.93241 11.4921 6.81947 11.6051C6.70652 11.718 6.56264 11.7949 6.40598 11.8261C6.24932 11.8572 6.08693 11.8413 5.93936 11.7801C5.79179 11.719 5.66566 11.6155 5.57692 11.4827C5.48818 11.3499 5.44081 11.1937 5.44081 11.034C5.44081 10.8198 5.5259 10.6144 5.67736 10.4629C5.82881 10.3115 6.03423 10.2264 6.24842 10.2264Z" fill="#00685E"/>
<path id="Path 16938" d="M12.348 7.1556V5.77919C12.348 4.89093 11.9951 4.03905 11.367 3.41095C10.739 2.78286 9.88706 2.42999 8.9988 2.42999C8.11053 2.42999 7.25866 2.78286 6.63057 3.41095C6.00247 4.03905 5.6496 4.89093 5.6496 5.77919V7.1544H6.4056V5.77919C6.39818 5.43403 6.45974 5.09087 6.58669 4.76982C6.71365 4.44878 6.90345 4.15631 7.14493 3.90958C7.38641 3.66284 7.67472 3.46681 7.99296 3.33298C8.31121 3.19915 8.65297 3.13022 8.99821 3.13022C9.34345 3.13022 9.6852 3.19915 10.0034 3.33298C10.3217 3.46681 10.61 3.66284 10.8515 3.90958C11.093 4.15631 11.2828 4.44878 11.4097 4.76982C11.5367 5.09087 11.5982 5.43403 11.5908 5.77919V7.1544L12.348 7.1556Z" fill="#00685E"/>
</g>
</g>
</g>
</g>
</g>
<defs>
<clipPath id="clip0_18_1145">
<rect width="18" height="18" fill="white"/>
</clipPath>
</defs>
</svg>
